<?xml version="1.0" encoding="UTF-8" standalone="no"?>
<svg
   xmlns:dc="http://purl.org/dc/elements/1.1/"
   xmlns:cc="http://creativecommons.org/ns#"
   xmlns:rdf="http://www.w3.org/1999/02/22-rdf-syntax-ns#"
   xmlns:svg="http://www.w3.org/2000/svg"
   xmlns="http://www.w3.org/2000/svg"
   xmlns:sodipodi="http://sodipodi.sourceforge.net/DTD/sodipodi-0.dtd"
   xmlns:inkscape="http://www.inkscape.org/namespaces/inkscape"
   id="b19d21a7-7bc0-44bd-ab2a-ad7473c6bec7"
   data-name="Layer 1"
   width="627.73706"
   height="422.91977"
   viewBox="0 0 627.73705 422.91976"
   version="1.1"
   sodipodi:docname="Hello New.svg"
   inkscape:version="1.0.2-2 (e86c870879, 2021-01-15)">
  <metadata
     id="metadata1057">
    <rdf:RDF>
      <cc:Work
         rdf:about="">
        <dc:format>image/svg+xml</dc:format>
        <dc:type
           rdf:resource="http://purl.org/dc/dcmitype/StillImage" />
        <dc:title />
      </cc:Work>
    </rdf:RDF>
  </metadata>
  <defs
     id="defs1055" />
  <sodipodi:namedview
     pagecolor="#ffffff"
     bordercolor="#666666"
     borderopacity="1"
     objecttolerance="10"
     gridtolerance="10"
     guidetolerance="10"
     inkscape:pageopacity="0"
     inkscape:pageshadow="2"
     inkscape:window-width="1600"
     inkscape:window-height="838"
     id="namedview1053"
     showgrid="false"
     inkscape:zoom="0.96290637"
     inkscape:cx="219.52114"
     inkscape:cy="212.4183"
     inkscape:window-x="-8"
     inkscape:window-y="-8"
     inkscape:window-maximized="1"
     inkscape:current-layer="b19d21a7-7bc0-44bd-ab2a-ad7473c6bec7"
     inkscape:document-rotation="0" />
  <path
     d="M 613.23931,175.25766 H 38.663145 a 9.19888,9.19888 0 0 0 0,18.39776 h 16.275 V 413.7209 a 9.19888,9.19888 0 0 0 18.39776,0 l 0.1398,-220.06548 H 534.6314 l 42.52,220.06548 a 9.198875,9.198875 0 1 0 18.39775,0 l 2.67633,-220.06548 h 15.01383 a 9.19888,9.19888 0 0 0 0,-18.39776 z"
     fill="#cccccc"
     id="path946" />
  <path
     d="m 138.25831,134.26877 v 38.9547 H 40.662145 a 19.489154,19.489154 0 1 1 -1.35523,-38.95474 q 0.67739,-0.0236 1.35523,0 z"
     fill="#f2f2f2"
     id="path948" />
  <path
     d="m 140.65564,172.92382 a 1.49881,1.49881 0 0 1 -1.49822,1.49822 H 38.923875 a 20.52615,20.52615 0 0 1 0,-41.05229 H 139.15741 a 1.49827,1.49827 0 1 1 0,2.99653 H 38.923875 a 17.52964,17.52964 0 0 0 0,35.05924 H 139.15741 a 1.49883,1.49883 0 0 1 1.49823,1.4983 z"
     fill="#6c63ff"
     id="path950" />
  <path
     d="M 138.25831,143.2583 H 33.380195 a 0.29966002,0.29966002 0 0 1 -0.006,-0.59929 H 138.25783 a 0.29966,0.29966 0 0 1 0,0.59929 z"
     fill="#cccccc"
     id="path952" />
  <path
     d="M 138.25831,150.44999 H 33.380195 a 0.29966002,0.29966002 0 0 1 -0.006,-0.59929 H 138.25783 a 0.29966,0.29966 0 0 1 0,0.59929 z"
     fill="#cccccc"
     id="path954" />
  <path
     d="M 138.25831,157.64162 H 33.380195 a 0.29966002,0.29966002 0 0 1 -0.006,-0.59929 H 138.25783 a 0.29966,0.29966 0 0 1 0,0.59929 z"
     fill="#cccccc"
     id="path956" />
  <path
     d="M 138.25831,164.83317 H 33.380195 a 0.29966002,0.29966002 0 0 1 -0.006,-0.59929 H 138.25783 a 0.29966,0.29966 0 0 1 0,0.59929 z"
     fill="#cccccc"
     id="path958" />
  <path
     d="m 119.86055,93.22762 v 38.95474 H 22.264385 a 19.489153,19.489153 0 0 1 -1.35522,-38.95474 q 0.67737,-0.0236 1.35522,0 z"
     fill="#f2f2f2"
     id="path960" />
  <path
     d="m 122.25788,131.88272 a 1.49885,1.49885 0 0 1 -1.49822,1.49826 H 20.526145 a 20.526145,20.526145 0 0 1 0,-41.05229 H 120.75966 a 1.49826,1.49826 0 1 1 0,2.99652 H 20.526145 a 17.52964,17.52964 0 0 0 0,35.05928 H 120.75966 a 1.49884,1.49884 0 0 1 1.49822,1.49823 z"
     fill="#3f3d56"
     id="path962" />
  <path
     d="M 119.86055,102.21716 H 14.982445 a 0.29966002,0.29966002 0 0 1 -0.006,-0.59929 H 119.86009 a 0.29966,0.29966 0 0 1 0,0.59929 z"
     fill="#cccccc"
     id="path964" />
  <path
     d="M 119.86055,109.40884 H 14.982445 a 0.29966002,0.29966002 0 0 1 -0.006,-0.59929 H 119.86009 a 0.29966,0.29966 0 0 1 0,0.59929 z"
     fill="#cccccc"
     id="path966" />
  <path
     d="M 119.86055,116.60047 H 14.982445 a 0.29966002,0.29966002 0 0 1 -0.006,-0.59929 H 119.86009 a 0.29966,0.29966 0 0 1 0,0.59929 z"
     fill="#cccccc"
     id="path968" />
  <path
     d="M 119.86055,123.79206 H 14.982445 a 0.29966002,0.29966002 0 0 1 -0.006,-0.59929 H 119.86009 a 0.29966,0.29966 0 0 1 0,0.59929 z"
     fill="#cccccc"
     id="path970" />
  <path
     d="m 233.3947,313.10177 v -33.96509 a 5.661,5.661 0 0 0 -5.66085,-5.66085 H 98.949545 a 5.661,5.661 0 0 0 -5.66084,5.66085 v 33.96509 z"
     fill="#cccccc"
     id="path972" />
  <rect
     x="93.288666"
     y="325.83868"
     width="140.10602"
     height="43.871578"
     fill="#cccccc"
     id="rect974" />
  <path
     d="m 93.288705,382.44717 v 33.96513 a 5.661,5.661 0 0 0 5.66084,5.66084 H 227.73385 a 5.661,5.661 0 0 0 5.66085,-5.66084 v -33.96513 z"
     fill="#cccccc"
     id="path976" />
  <circle
     cx="162.63409"
     cy="294.70401"
     r="4.2456398"
     fill="#ffffff"
     id="circle978" />
  <circle
     cx="162.63409"
     cy="351.3125"
     r="4.2456398"
     fill="#ffffff"
     id="circle980" />
  <circle
     cx="162.8616"
     cy="406.72229"
     r="4.2456398"
     fill="#ffffff"
     id="circle982" />
  <path
     d="m 217.51015,234.74883 v 38.9547 h -97.59613 a 19.48916,19.48916 0 0 1 -1.35647,-38.9547 q 0.678,-0.0236 1.35647,0 z"
     fill="#f2f2f2"
     id="path984" />
  <path
     d="m 219.90752,273.40388 a 1.49881,1.49881 0 0 1 -1.49822,1.49822 H 118.17575 a 20.52615,20.52615 0 0 1 -0.0247,-41.05229 h 100.25824 a 1.49827,1.49827 0 1 1 0,2.99653 H 118.17575 a 17.52963,17.52963 0 0 0 0,35.05923 h 100.23354 a 1.49885,1.49885 0 0 1 1.49823,1.49831 z"
     fill="#3f3d56"
     id="path986" />
  <path
     d="M 217.51015,243.7383 H 112.63214 a 0.29966002,0.29966002 0 0 1 -0.006,-0.59929 H 217.5098 a 0.29966,0.29966 0 0 1 0,0.59929 z"
     fill="#cccccc"
     id="path988" />
  <path
     d="M 217.51015,250.93005 H 112.63214 a 0.29966002,0.29966002 0 0 1 -0.006,-0.59929 H 217.5098 a 0.29966,0.29966 0 0 1 0,0.59929 z"
     fill="#cccccc"
     id="path990" />
  <path
     d="M 217.51015,258.12168 H 112.63214 a 0.29966002,0.29966002 0 0 1 -0.006,-0.59929 H 217.5098 a 0.29966,0.29966 0 0 1 0,0.59929 z"
     fill="#cccccc"
     id="path992" />
  <path
     d="M 217.51015,265.31323 H 112.63214 a 0.29966002,0.29966002 0 0 1 -0.006,-0.59929 H 217.5098 a 0.29966,0.29966 0 0 1 0,0.59929 z"
     fill="#cccccc"
     id="path994" />
  <path
     d="M 102.88862,80.23245 H 58.422765 a 2.74745,2.74745 0 0 0 -1.21689,0.28306 l -11.22288,5.61835 a 2.0452,2.0452 0 0 0 0,3.76443 l 11.22288,5.61835 a 2.74718,2.74718 0 0 0 1.21689,0.28306 h 44.465855 a 2.33381,2.33381 0 0 0 2.4628,-2.16532 v -11.2367 a 2.3338,2.3338 0 0 0 -2.4628,-2.16523 z"
     fill="#3f3d56"
     id="path996" />
  <path
     d="m 105.35141,82.39777 v 11.2367 a 2.33383,2.33383 0 0 1 -2.4628,2.16532 H 94.029715 V 80.23245 h 8.858895 a 2.33383,2.33383 0 0 1 2.4628,2.16532 z"
     fill="#6c63ff"
     id="path998" />
  <path
     d="m 354.49414,174.3733 -4.69488,-1.97685 -3.22067,-23.53551 h -42.889 l -3.491,23.43936 -4.20031,2.10013 a 0.99744,0.99744 0 0 0 0.44611,1.88955 h 57.66283 a 0.99739,0.99739 0 0 0 0.38692,-1.91668 z"
     fill="#e6e6e6"
     id="path1010" />
  <path
     d="M 430.71094,151.9923 H 220.02807 a 4.174,4.174 0 0 1 -4.16467,-4.174 v -29.70908 h 219.01221 v 29.70908 a 4.17408,4.17408 0 0 1 -4.16467,4.174 z"
     fill="#cccccc"
     id="path1012" />
  <path
     d="M 435.09584,132.15043 H 215.67114 V 5.03167 A 5.0375,5.0375 0 0 1 220.70301,0 h 209.361 a 5.03755,5.03755 0 0 1 5.03191,5.03167 z"
     fill="#3f3d56"
     id="path1014"
     style="fill:#0e1013;fill-opacity:1" />
  <path
     d="M 421.99047,122.92414 H 228.77646 a 3.88344,3.88344 0 0 1 -3.87919,-3.87908 V 13.10537 a 3.88365,3.88365 0 0 1 3.87919,-3.87932 h 193.214 a 3.88366,3.88366 0 0 1 3.8792,3.87932 v 105.93969 a 3.88345,3.88345 0 0 1 -3.87919,3.87908 z"
     fill="#ffffff"
     id="path1016" />
  <path
     d="m 371.10079,160.30492 a 11.6159,11.6159 0 0 1 17.666,2.27241 l 26.13446,-4.64642 6.69716,15.19317 -36.99908,6.04328 a 11.67883,11.67883 0 0 1 -13.49855,-18.86244 z"
     fill="#ffb6b6"
     id="path1018" />
  <path
     d="m 395.29726,179.7043 27.24571,-0.33963 3.44881,-0.0467 55.43254,-0.69843 c 0,0 15.05312,-14.3609 28.16067,-29.1465 l -1.83718,-13.28833 A 54.29159,54.29159 0 0 0 489.54415,102.5702 c -18.77312,12.5441 -29.66,37.37369 -29.66,37.37369 l -34.37018,8.22071 -3.43848,0.82227 -21.35609,5.10326 z"
     fill="#6c63ff"
     id="path1020" />
  <path
     d="m 534.77125,261.37997 h -50.85762 c 0,2.17915 -55.59414,3.94772 -55.59414,3.94772 a 20.30858,20.30858 0 0 0 -3.33166,3.15818 19.59694,19.59694 0 0 0 -4.58,12.63271 v 3.15818 a 19.74588,19.74588 0 0 0 19.73861,19.73861 h 94.62478 a 19.75579,19.75579 0 0 0 19.73862,-19.73861 v -3.15818 a 19.76607,19.76607 0 0 0 -19.73859,-19.73861 z"
     fill="#e4e4e4"
     id="path1022" />
  <rect
     x="477.25967"
     y="303.23123"
     width="20.52816"
     height="118.48951"
     fill="#e4e4e4"
     id="rect1024" />
  <path
     d="m 418.83337,420.99962 c 0,2.218 31.10721,0.858 69.47992,0.858 38.37271,0 69.4799,1.36012 69.4799,-0.858 0,-2.21812 -31.10719,-19.807 -69.4799,-19.807 -38.37271,0 -69.47992,17.58891 -69.47992,19.807 z"
     fill="#e4e4e4"
     id="path1026" />
  <polygon
     points="652.64,348.531 675.188,348.532 675.186,407.461 659.908,407.46 "
     fill="#ffb6b6"
     id="polygon1028"
     transform="translate(-270.14225)" />
  <path
     d="m 408.93977,422.2703 -49.26229,-0.002 v -0.62309 a 19.17528,19.17528 0 0 1 19.17426,-19.17395 h 9.9e-4 l 30.08773,0.001 z"
     fill="#2f2e41"
     id="path1030"
     style="fill:#0e1013;fill-opacity:1" />
  <polygon
     points="607.485,348.531 630.033,348.532 630.031,407.461 614.753,407.46 "
     fill="#ffb6b6"
     id="polygon1032"
     transform="translate(-270.14225)" />
  <path
     d="m 363.78474,422.2703 -49.26229,-0.002 v -0.62309 a 19.1753,19.1753 0 0 1 19.17426,-19.17395 h 9.9e-4 l 30.08773,0.001 z"
     fill="#2f2e41"
     id="path1034"
     style="fill:#0e1013;fill-opacity:1" />
  <circle
     cx="496.74429"
     cy="41.63615"
     r="26.564011"
     fill="#ffb6b6"
     id="circle1036" />
  <path
     d="m 539.7377,223.64247 c 0,0 8.91308,47.1307 -24.99959,53.13247 -33.91266,6.00177 -82.86639,10.21993 -82.86639,10.21993 l -21.98352,102.56667 -29.53443,-2.63675 c 0,0 3.928,-123.46737 13.5876,-133.127 9.6596,-9.65963 70.71212,-38.58282 70.71212,-38.58282 z"
     fill="#2f2e41"
     id="path1038"
     style="fill:#0e1013;fill-opacity:1" />
  <path
     d="m 473.504,203.88965 -14.83186,14.87927 c 0,0 -107.0941,17.25 -111.22553,41.9852 -6.23747,37.34427 -13.60493,118.552 -13.60493,118.552 l 32.1988,-2.41491 12.62647,-92.31123 51.5182,-11.71874 58.61328,-31.94294 z"
     fill="#2f2e41"
     id="path1040"
     style="fill:#0e1013;fill-opacity:1" />
  <path
     d="M 522.30641,25.77945 C 519.68411,20.83194 516.35227,10.9716 511.05961,9.14288 A 42.07731,42.07731 0 0 0 502.0012,7.21316 l -8.99618,3.46009 4.89616,-3.808 q -1.42988,-0.0852 -2.85816,-0.13928 l -6.0699,2.33453 3.10542,-2.41532 c -5.65883,-0.0581 -11.5,0.53031 -15.88468,3.9752 -3.73817,2.93677 -7.44169,14.06185 -8.04057,18.77753 a 35.9171,35.9171 0 0 0 0.6603,13.53055 l 1.53716,1.46166 a 18.85936,18.85936 0 0 0 1.206,-3.83883 18.18056,18.18056 0 0 1 8.70263,-11.80641 l 0.0837,-0.0472 c 2.5782,-1.451 5.7065,-1.3841 8.66308,-1.27769 l 14.04158,0.50527 c 3.37829,0.12158 7.01608,0.33533 9.64978,2.45443 a 15.888,15.888 0 0 1 3.85826,5.58929 c 1.30867,2.6414 3.86609,12.60418 3.86609,12.60418 0,0 1.44689,-1.88062 2.1404,-0.48092 a 48.39766,48.39766 0 0 0 2.01437,-11.23347 22.00877,22.00877 0 0 0 -2.27022,-11.07932 z"
     fill="#2f2e41"
     id="path1042"
     style="fill:#0e1013;fill-opacity:1" />
  <path
     d="m 615.2154,53.30179 a 11.61582,11.61582 0 0 0 -10.51326,14.37787 l -21.3614,15.75722 6.40951,15.31674 29.8539,-22.67594 a 11.67883,11.67883 0 0 0 -4.38876,-22.77589 z"
     fill="#ffb6b6"
     id="path1044" />
  <path
     d="m 611.77742,85.4703 -53.55101,59.4744 c 0,0 -25.60913,-8.19816 -45.41466,-17.08624 l -8.8977,-27.32787 a 54.34329,54.34329 0 0 1 -2.60112,-19.66442 c 27.45606,-7.306 59.391,19.87863 59.391,19.87863 L 600.7891,69.34603 Z"
     fill="#6c63ff"
     id="path1046" />
  <path
     d="m 486.82215,228.0352 c -9.554,-3.30029 -19.43312,-6.71277 -30.08912,-7.99385 l -0.45773,-0.0553 0.12632,-0.443 c 11.03072,-38.7308 8.27761,-63.50657 2.87195,-100.72306 a 37.59072,37.59072 0 0 1 21.5483,-39.50121 l 0.0654,-0.0296 30.43435,-1.93391 0.0693,-0.004 22.13437,6.50989 a 15.18313,15.18313 0 0 1 10.86724,14.83111 c -0.23986,12.23937 0.26869,25.9043 0.80711,40.37114 1.20787,32.45569 2.45686,66.01647 -4.63044,87.79166 l -0.0372,0.11412 -0.0946,0.0742 a 36.09883,36.09883 0 0 1 -23.08086,8.10758 c -9.93489,-4e-5 -20.07359,-3.50205 -30.53446,-7.11549 z"
     fill="#6c63ff"
     id="path1048" />
</svg>
